<?xml version="1.0" encoding="UTF-8" standalone="no"?>
<svg
   width="384"
   height="384"
   viewBox="0 0 384 384"
   fill="none"
   version="1.1"
   id="svg55"
   sodipodi:docname="appwrite.svg"
   inkscape:version="1.1.2 (b8e25be8, 2022-02-05)"
   xmlns:inkscape="http://www.inkscape.org/namespaces/inkscape"
   xmlns:sodipodi="http://sodipodi.sourceforge.net/DTD/sodipodi-0.dtd"
   xmlns="http://www.w3.org/2000/svg"
   xmlns:svg="http://www.w3.org/2000/svg">
  <defs
     id="defs59">
    <pattern
       patternUnits="userSpaceOnUse"
       width="322.98114"
       height="217.54912"
       patternTransform="translate(34.127186,35.677658)"
       id="pattern208">
      <rect
         style="fill:#ffffff;fill-opacity:0.36;stroke:#000000"
         id="rect206"
         width="321.98114"
         height="216.54912"
         x="0.5"
         y="0.5" />
    </pattern>
  </defs>
  <sodipodi:namedview
     id="namedview57"
     pagecolor="#ffffff"
     bordercolor="#666666"
     borderopacity="1.0"
     inkscape:pageshadow="2"
     inkscape:pageopacity="0.0"
     inkscape:pagecheckerboard="0"
     showgrid="false"
     inkscape:zoom="1.9348958"
     inkscape:cx="192"
     inkscape:cy="192"
     inkscape:window-width="1080"
     inkscape:window-height="969"
     inkscape:window-x="0"
     inkscape:window-y="25"
     inkscape:window-maximized="0"
     inkscape:current-layer="svg55" />
  <path
     fill-rule="evenodd"
     clip-rule="evenodd"
     d="m 250.07941,252.22165 c -19.465,0 -37.711,-5.218 -53.415,-14.332 -11.783,6.82 -24.876,11.384 -38.621,13.306 -27.992,3.915 -56.3932,-3.451 -78.954897,-20.476 -11.1823,-8.427 -20.5946,-18.974 -27.6991,-31.039 -7.1044,-12.065 -11.7617,-25.412 -13.7058,-39.278 -1.944,-13.866 -1.1366,-27.979 2.376,-41.533 3.5126,-13.554 9.6616,-26.282503 18.0956,-37.458803 8.434,-11.1764 18.9877,-20.5813 31.0579,-27.6773 12.070297,-7.0959 25.420297,-11.7438 39.288297,-13.6781 13.867,-1.9342 27.979,-1.1169 41.531,2.4052 9.353,2.4311 18.313,6.118 26.639,10.9448 15.703,-9.1107 33.946,-14.3275 53.408,-14.3275 58.859,0 106.572,47.7131 106.572,106.571703 0,58.859 -47.713,106.572 -106.572,106.572 z m -71.253,-185.825203 0.032,-0.028 c -14.799,-6.6401 -31.29,-9.0605 -47.611,-6.7781 -22.824,3.1919 -43.446197,15.3201 -57.328497,33.7165 -13.8823,18.396803 -19.888,41.553803 -16.6961,64.378803 3.1919,22.824 15.3201,43.446 33.7165,57.328 18.396097,13.882 41.554097,19.888 64.378097,16.696 22.825,-3.192 43.447,-15.32 57.329,-33.716 13.882,-18.397 19.888,-41.554 16.696,-64.379 -1.473,-10.53 -4.847,-20.591 -9.862,-29.738 -9.083,-16.499303 -23.372,-29.730203 -40.654,-37.480203 z M 64.932213,292.95565 c -2.7747,-2.039 -6.1302,-3.059 -10.0669,-3.059 -3.5571,0 -6.7114,0.795 -9.4622,2.384 -2.7509,1.588 -4.8975,3.888 -6.4391,6.898 -1.5416,3.013 -2.3126,6.558 -2.3126,10.636 0,4.031 0.771,7.552 2.3126,10.565 1.5416,3.013 3.6997,5.326 6.4744,6.938 2.7747,1.612 5.917,2.419 9.4269,2.419 3.9367,0 7.2922,-1.02 10.0669,-3.059 2.7747,-2.039 4.6826,-4.743 5.7241,-8.111 v 10.671 h 4.9121 v -38.846 h -4.9121 v 10.671 c -1.0415,-3.366 -2.9494,-6.068 -5.7241,-8.107 z m -19.282,5.512 c 2.6335,-2.775 6.1315,-4.162 10.495,-4.162 2.7508,0 5.2285,0.64 7.4321,1.92 2.2067,1.283 3.938,3.098 5.1945,5.446 1.2565,2.345 1.8845,5.059 1.8845,8.143 0,3.084 -0.628,5.799 -1.8845,8.147 -1.2565,2.348 -2.9878,4.162 -5.1945,5.442 -2.2036,1.28 -4.6813,1.919 -7.4321,1.919 -4.3635,0 -7.8615,-1.387 -10.495,-4.161 -2.6303,-2.775 -3.9455,-6.557 -3.9455,-11.347 0,-4.79 1.3152,-8.572 3.9455,-11.347 z m 70.930197,-6.187 c -2.728,-1.589 -5.87,-2.384 -9.427,-2.384 -3.9839,0 -7.351297,1.02 -10.102197,3.059 -2.7508,2.039 -4.6472,4.741 -5.6888,8.107 v -10.671 h -4.9826 v 57.201 h 4.9826 v -29.026 c 1.0416,3.368 2.938,6.072 5.6888,8.111 2.7509,2.039 6.118297,3.059 10.102197,3.059 3.51,0 6.641,-0.807 9.392,-2.419 2.75,-1.612 4.897,-3.925 6.439,-6.938 1.541,-3.013 2.312,-6.534 2.312,-10.565 0,-4.078 -0.771,-7.623 -2.312,-10.636 -1.542,-3.01 -3.677,-5.31 -6.404,-6.898 z m -18.213997,3.945 c 2.206697,-1.28 4.685697,-1.92 7.436997,-1.92 4.41,0 7.92,1.387 10.53,4.162 2.607,2.775 3.91,6.557 3.91,11.347 0,4.79 -1.303,8.572 -3.91,11.347 -2.61,2.774 -6.12,4.161 -10.53,4.161 -2.7513,0 -5.2303,-0.639 -7.436997,-1.919 -2.2036,-1.28 -3.9221,-3.094 -5.1548,-5.442 -1.2326,-2.348 -1.8492,-5.063 -1.8492,-8.147 0,-3.084 0.6166,-5.798 1.8492,-8.143 1.2327,-2.348 2.9512,-4.163 5.1548,-5.446 z m 66.092997,-3.945 c -2.727,-1.589 -5.87,-2.384 -9.427,-2.384 -3.984,0 -7.351,1.02 -10.102,3.059 -2.751,2.039 -4.647,4.741 -5.689,8.107 v -10.671 h -4.982 v 57.201 h 4.982 v -29.026 c 1.042,3.368 2.938,6.072 5.689,8.111 2.751,2.039 6.118,3.059 10.102,3.059 3.51,0 6.641,-0.807 9.392,-2.419 2.751,-1.612 4.897,-3.925 6.439,-6.938 1.541,-3.013 2.312,-6.534 2.312,-10.565 0,-4.078 -0.771,-7.623 -2.312,-10.636 -1.542,-3.01 -3.676,-5.31 -6.404,-6.898 z m -18.214,3.945 c 2.207,-1.28 4.686,-1.92 7.437,-1.92 4.41,0 7.92,1.387 10.53,4.162 2.607,2.775 3.91,6.557 3.91,11.347 0,4.79 -1.303,8.572 -3.91,11.347 -2.61,2.774 -6.12,4.161 -10.53,4.161 -2.751,0 -5.23,-0.639 -7.437,-1.919 -2.203,-1.28 -3.922,-3.094 -5.155,-5.442 -1.232,-2.348 -1.849,-5.063 -1.849,-8.147 0,-3.084 0.617,-5.798 1.849,-8.143 1.233,-2.348 2.952,-4.163 5.155,-5.446 z m 91.457,-6.399 h -9.392 l -6.474,30.448 -8.822,-30.448 h -10.601 l -8.748,30.448 -6.403,-30.448 h -10.032 l 10.53,39.411 h 11.095 l 8.682,-28.669 8.464,28.669 h 11.1 z m 20.842,1.597 c -2.419,1.448 -4.362,3.428 -5.83,5.941 v -7.538 h -10.032 v 39.411 h 10.032 v -18.995 c 0,-6.829 3.674,-10.243 11.024,-10.243 h 2.918 v -10.743 c -2.987,0 -5.691,0.723 -8.112,2.167 z m 14.232,-16.859 c -1.139,1.019 -1.708,2.334 -1.708,3.946 0,1.565 0.569,2.859 1.708,3.879 1.138,1.021 2.632,1.532 4.479,1.532 1.851,0 3.346,-0.511 4.484,-1.532 1.139,-1.02 1.708,-2.314 1.708,-3.879 0,-1.612 -0.569,-2.927 -1.708,-3.946 -1.138,-1.02 -2.633,-1.531 -4.484,-1.531 -1.847,0 -3.341,0.511 -4.479,1.531 z m 9.462,15.262 h -10.032 v 39.411 h 10.032 z m 30.162,30.801 h -3.91 c -1.804,0 -3.085,-0.379 -3.844,-1.135 -0.759,-0.759 -1.139,-2.087 -1.139,-3.985 v -17.216 h 8.822 v -8.465 h -8.822 v -9.749 h -10.031 v 9.749 h -5.477 v 8.465 h 5.477 v 17.075 c 0,4.978 1.174,8.535 3.521,10.671 2.348,2.133 5.727,3.2 10.138,3.2 h 5.265 z m 43.898,-9.176 c 0.235,-1.28 0.353,-2.418 0.353,-3.416 0,-3.604 -0.794,-6.817 -2.383,-9.638 -1.589,-2.822 -3.842,-5.039 -6.757,-6.651 -2.919,-1.613 -6.322,-2.419 -10.208,-2.419 -3.843,0 -7.259,0.806 -10.248,2.419 -2.986,1.612 -5.309,3.948 -6.969,7.008 -1.662,3.057 -2.493,6.65 -2.493,10.777 0,4.126 0.831,7.706 2.493,10.743 1.66,3.036 3.983,5.372 6.969,7.008 2.989,1.636 6.405,2.454 10.248,2.454 3.271,0 6.247,-0.617 8.928,-1.849 2.677,-1.233 4.871,-2.941 6.58,-5.124 1.707,-2.181 2.821,-4.646 3.341,-7.397 h -10.601 c -0.426,1.945 -1.411,3.485 -2.952,4.621 -1.539,1.138 -3.471,1.708 -5.795,1.708 -2.61,0 -4.791,-0.83 -6.545,-2.489 -1.756,-1.66 -2.705,-4.245 -2.846,-7.755 z m -12.274,-11.739 c 1.828,1.659 2.669,4.103 2.525,7.33 h -19.136 c 0.188,-3.227 1.207,-5.671 3.058,-7.33 1.85,-1.66 4.128,-2.489 6.832,-2.489 2.654,0 4.894,0.829 6.721,2.489 z"
     fill="#f02e65"
     id="path51" />
  <path
     d="M141.487 107.744C141.359 108.059 139.73 114.459 137.975 122.05C136.154 129.641 133.268 141.623 131.64 148.712C128.5 161.698 126.618 170.23 126.618 171.36C126.618 171.671 128.564 171.925 130.946 171.925H135.277L137.219 163.265C138.351 158.561 140.861 147.77 142.868 139.301C144.876 130.831 147.321 120.543 148.264 116.401C149.203 112.26 150.144 108.499 150.334 108.059C150.523 107.495 149.454 107.308 146.193 107.308C143.745 107.308 141.61 107.495 141.487 107.744ZM107.796 134.909L102.024 141.184L103.72 143.19C104.658 144.318 107.233 147.143 109.429 149.465L113.444 153.729H124.862L119.468 147.894C116.517 144.761 114.07 141.748 114.07 141.372C114.07 140.933 116.33 138.111 119.091 135.099C121.85 132.027 124.109 129.388 124.109 129.075C124.109 128.824 121.725 128.636 118.84 128.636H113.633L107.796 134.909ZM151.712 129.011C151.712 129.202 152.779 130.392 154.094 131.71C158.991 136.603 162.441 140.746 162.252 141.559C162.128 142 159.742 144.946 156.858 148.021L151.653 153.729H157.485L163.32 153.667L168.65 147.834C171.601 144.574 173.984 141.684 173.984 141.308C173.984 140.997 171.475 138.047 168.337 134.724L162.693 128.636H157.232C154.158 128.636 151.712 128.824 151.712 129.011Z"
     fill="#F02E65"
     id="path53" />
</svg>
