<?xml version="1.0" standalone="no"?>
<!DOCTYPE svg PUBLIC "-//W3C//DTD SVG 20010904//EN"
 "http://www.w3.org/TR/2001/REC-SVG-20010904/DTD/svg10.dtd">
<svg version="1.0" xmlns="http://www.w3.org/2000/svg"
 width="3503.000000pt" height="3503.000000pt" viewBox="0 0 3503.000000 3503.000000"
 preserveAspectRatio="xMidYMid meet">
<metadata>
Created by potrace 1.14, written by Peter Selinger 2001-2017
</metadata>
<g transform="translate(0.000000,3503.000000) scale(0.100000,-0.100000)"
fill="#000000" stroke="none">
<path d="M7528 35018 c-2 -7 -3 -7888 -3 -17513 l1 -17500 9984 0 9985 0 0
17510 0 17510 -9982 3 c-7980 2 -9982 0 -9985 -10z m19542 -11659 l0 -11259
-762 0 c-890 -1 -18327 -1 -18345 0 -10 0 -13 2259 -13 11259 l0 11260 9560 0
9560 0 0 -11260z"/>
<path d="M9767 32808 c-11 -7 -16 -4536 -5 -4554 4 -5 966 -9 2445 -8 l2439 0
0 -4275 c1 -3756 3 -4458 19 -4661 8 -110 17 -197 20 -215 3 -11 7 -44 10 -74
7 -68 33 -250 45 -316 5 -27 12 -61 14 -75 3 -14 10 -50 16 -80 6 -30 13 -66
16 -80 7 -38 64 -271 74 -305 57 -187 131 -411 165 -500 216 -555 495 -1038
874 -1515 68 -85 104 -129 136 -164 6 -6 44 -49 85 -95 396 -442 907 -849
1465 -1166 109 -62 486 -255 499 -255 2 0 37 -15 78 -33 148 -68 411 -166 593
-222 66 -20 131 -40 145 -45 31 -11 255 -69 295 -76 16 -3 32 -7 35 -9 4 -2
20 -7 36 -9 16 -3 40 -8 54 -11 14 -3 59 -12 100 -20 41 -8 86 -17 100 -20 47
-10 195 -35 240 -41 25 -3 54 -7 65 -9 11 -2 47 -6 80 -10 33 -3 67 -8 75 -10
8 -2 51 -7 95 -10 44 -4 91 -8 105 -10 14 -2 66 -6 115 -10 50 -3 122 -9 160
-11 39 -3 698 -7 1466 -8 l1396 -3 0 2283 0 2282 -936 0 c-515 0 -955 3 -979
6 -23 3 -60 9 -83 12 -331 45 -676 354 -787 704 -50 155 -47 -95 -47 4625 l0
4430 2388 0 2387 0 1 25 c4 143 0 4532 -4 4536 -8 9 -15476 11 -15490 2z"/>
</g>
</svg>
