<?xml version="1.0" encoding="UTF-8" standalone="no"?>
<svg
   viewBox="0 0 299.03052 199.44939"
   version="1.1"
   id="svg550"
   sodipodi:docname="built-with-appwrite.svg"
   width="299.03052"
   height="199.44939"
   inkscape:version="1.1.2 (b8e25be8, 2022-02-05)"
   xmlns:inkscape="http://www.inkscape.org/namespaces/inkscape"
   xmlns:sodipodi="http://sodipodi.sourceforge.net/DTD/sodipodi-0.dtd"
   xmlns="http://www.w3.org/2000/svg"
   xmlns:svg="http://www.w3.org/2000/svg"
   xmlns:bx="https://boxy-svg.com">
  <defs
     id="defs554" />
  <sodipodi:namedview
     id="namedview552"
     pagecolor="#ffffff"
     bordercolor="#666666"
     borderopacity="1.0"
     inkscape:pageshadow="2"
     inkscape:pageopacity="0.0"
     inkscape:pagecheckerboard="0"
     showgrid="false"
     inkscape:zoom="0.704375"
     inkscape:cx="188.11003"
     inkscape:cy="60.337178"
     inkscape:window-width="1080"
     inkscape:window-height="969"
     inkscape:window-x="0"
     inkscape:window-y="25"
     inkscape:window-maximized="0"
     inkscape:current-layer="svg550" />
  <g
     id="g639"
     transform="translate(-69.35349,-102.46567)">
    <path
       d="m 368.384,202.21 c 0,55.001 -44.586,99.589 -99.589,99.589 -25.547,0 -48.846,-9.622 -66.476,-25.434 28.242,-12.715 47.903,-41.103 47.903,-74.083 0,-33.023 -19.71,-61.44 -48.011,-74.131 17.645,-15.87 40.985,-25.529 66.584,-25.529 55.003,0 99.589,44.587 99.589,99.588 z"
       fill="#f02e65"
       id="path542" />
    <path
       d="M 228.987,122.718 C 167.825,76.497 79.561,113.816 70.114,189.895 c -4.39,35.358 10.442,70.367 38.895,91.809 61.196,46.18 149.434,8.796 158.829,-67.29 4.359,-35.313 -10.451,-70.266 -38.851,-91.697 z m -11.077,14.675 c 49.899,37.653 40.323,115.2 -17.236,139.586 -26.71,11.318 -57.432,7.525 -80.589,-9.951 -49.896,-37.654 -40.322,-115.201 17.236,-139.586 26.711,-11.316 57.433,-7.524 80.589,9.951 z"
       fill="#f02e65"
       bx:origin="0.499777 0.499705"
       id="path544" />
    <path
       d="m 171.666,167.755 c -0.118,0.293 -1.643,6.273 -3.28,13.368 -1.703,7.093 -4.4,18.291 -5.922,24.914 -2.933,12.136 -4.692,20.109 -4.692,21.163 0,0.292 1.819,0.529 4.044,0.529 h 4.048 l 1.815,-8.092 c 1.057,-4.395 3.404,-14.48 5.278,-22.394 1.877,-7.914 4.161,-17.529 5.042,-21.4 0.879,-3.869 1.759,-7.383 1.935,-7.795 0.176,-0.527 -0.822,-0.701 -3.871,-0.701 -2.287,0 -4.281,0.174 -4.397,0.408 z m -31.483,25.383 -5.393,5.864 1.585,1.876 c 0.877,1.054 3.284,3.693 5.334,5.864 l 3.753,3.983 h 10.671 l -5.044,-5.451 c -2.757,-2.928 -5.043,-5.745 -5.043,-6.095 0,-0.411 2.111,-3.047 4.693,-5.863 2.578,-2.87 4.689,-5.336 4.689,-5.628 0,-0.236 -2.227,-0.411 -4.923,-0.411 h -4.867 z m 41.038,-5.509 c 0,0.177 0.998,1.288 2.228,2.52 4.576,4.573 7.799,8.444 7.622,9.203 -0.115,0.414 -2.345,3.167 -5.041,6.039 l -4.865,5.334 h 5.451 l 5.452,-0.057 4.981,-5.453 c 2.759,-3.046 4.986,-5.746 4.986,-6.096 0,-0.292 -2.345,-3.048 -5.278,-6.154 l -5.272,-5.688 h -5.104 c -2.873,0 -5.16,0.175 -5.16,0.352 z"
       fill="#f02e65"
       id="path548" />
  </g>
</svg>
